#define Batt3_width 17
#define Batt3_height 10
static unsigned char Batt3_bits[] = {
   0xfe, 0x3f, 0x00, 0x01, 0x40, 0x00, 0xdd, 0xdd, 0x01, 0xdd, 0xdd, 0x01,
   0xdd, 0xdd, 0x01, 0xdd, 0xdd, 0x01, 0xdd, 0xdd, 0x01, 0xdd, 0xdd, 0x01,
   0x01, 0x40, 0x00, 0xfe, 0x3f, 0x00 };
