#define BattUSB_width 17
#define BattUSB_height 10
static unsigned char BattUSB_bits[] = {
   0xfe, 0x3f, 0x00, 0x01, 0x40, 0x00, 0xd5, 0xcd, 0x01, 0x55, 0xd4, 0x01,
   0xd5, 0xcd, 0x01, 0x15, 0xd5, 0x01, 0x15, 0xd5, 0x01, 0xdd, 0xcd, 0x01,
   0x01, 0x40, 0x00, 0xfe, 0x3f, 0x00 };
