#define Batt2_width 17
#define Batt2_height 10
static unsigned char Batt2_bits[] = {
   0xfe, 0x3f, 0x00, 0x01, 0x40, 0x00, 0xdd, 0xc1, 0x01, 0xdd, 0xc1, 0x01,
   0xdd, 0xc1, 0x01, 0xdd, 0xc1, 0x01, 0xdd, 0xc1, 0x01, 0xdd, 0xc1, 0x01,
   0x01, 0x40, 0x00, 0xfe, 0x3f, 0x00 };
