#define Batt1_width 17
#define Batt1_height 10
static unsigned char Batt1_bits[] = {
   0xfe, 0x3f, 0x00, 0x01, 0x40, 0x00, 0x1d, 0xc0, 0x01, 0x1d, 0xc0, 0x01,
   0x1d, 0xc0, 0x01, 0x1d, 0xc0, 0x01, 0x1d, 0xc0, 0x01, 0x1d, 0xc0, 0x01,
   0x01, 0x40, 0x00, 0xfe, 0x3f, 0x00 };
