#define Batt0_width 17
#define Batt0_height 10
static unsigned char Batt0_bits[] = {
   0xfe, 0x3f, 0x00, 0x01, 0x40, 0x00, 0x01, 0xc0, 0x01, 0x01, 0xc0, 0x01,
   0x01, 0xc0, 0x01, 0x01, 0xc0, 0x01, 0x01, 0xc0, 0x01, 0x01, 0xc0, 0x01,
   0x01, 0x40, 0x00, 0xfe, 0x3f, 0x00 };
